<svg width="25" height="24" viewBox="0 0 25 24" fill="none" xmlns="http://www.w3.org/2000/svg">
<path fill-rule="evenodd" clip-rule="evenodd" d="M6.48548 2.90039H17.7861C19.1559 2.90039 20.2517 4.0724 20.2517 5.45111V17.2398C20.2517 17.8602 20.0462 18.4118 19.7038 18.8254V20.1353C19.7038 20.6868 19.2929 21.1004 18.745 21.1004H16.7588C16.2109 21.1004 15.8 20.6868 15.8 20.1353V19.7906H8.40329V20.1353C8.40329 20.6868 7.99237 21.1004 7.44452 21.1004H5.45832C4.97892 21.1004 4.49955 20.6868 4.49955 20.1353V18.8254C4.15714 18.4118 3.95166 17.8603 3.95166 17.2398V5.45111C3.95166 4.07227 5.04743 2.90039 6.48571 2.90039L6.48548 2.90039ZM9.36197 3.65868H14.8412C15.663 3.65868 15.663 4.96858 14.8412 4.96858H9.36197C8.54016 4.96858 8.54016 3.65868 9.36197 3.65868ZM9.90986 18.1357C9.56745 18.1357 9.56745 17.5842 9.90986 17.5842H14.2932C14.6356 17.5842 14.6356 18.1357 14.2932 18.1357H9.90986ZM8.81409 17.0327C8.47168 17.0327 8.47168 16.4813 8.81409 16.4813H15.3891C15.7315 16.4813 15.7315 17.0327 15.3891 17.0327H8.81409ZM8.47168 18.0668C5.38974 18.1357 4.5678 17.6531 4.7047 14.6887C5.52651 16.1365 6.82786 17.3084 8.47168 18.0668ZM15.7315 18.0668C18.8819 18.1357 19.6354 17.6531 19.4985 14.6887C18.6767 16.1365 17.3753 17.3084 15.7315 18.0668ZM7.17049 5.51988H17.0327C18.4025 5.51988 19.5667 6.69189 19.5667 8.07059V11.9312C19.5667 13.3101 18.4024 14.413 17.0327 14.413H7.17049C5.80067 14.413 4.70493 13.3101 4.70493 11.9312V8.07059C4.70493 6.69176 5.8007 5.51988 7.17049 5.51988Z" fill="#079D49"/>
</svg>
