<svg width="25" height="24" viewBox="0 0 25 24" fill="none" xmlns="http://www.w3.org/2000/svg">
<path d="M18.5801 17.7101V6.01461C18.5801 5.55295 18.1698 5.14258 17.7081 5.14258H6.16647C5.65351 5.14258 5.29443 5.55295 5.29443 6.01461V17.7101C5.29443 18.1718 5.7048 18.5822 6.16647 18.5822H9.39813V13.4526C9.39813 13.0422 9.03906 12.6831 8.57739 12.6831H8.16702V8.37424C8.16702 8.11776 8.37221 7.96387 8.57739 7.96387H15.2459C15.5024 7.96387 15.6563 8.16905 15.6563 8.37424V12.6318H15.1946C14.7842 12.6318 14.4252 12.9909 14.4252 13.4013V18.5822H17.6568C18.1698 18.5822 18.5801 18.1718 18.5801 17.7101ZM18.0672 12.6318H16.0153L16.1179 12.5805L18.1185 10.6826V12.6318H18.0672ZM16.1692 11.7085V8.32294L16.2205 8.37424L17.9133 10.0157L17.862 10.067L16.1692 11.7085ZM18.0672 6.01461V9.40016L16.3231 7.70739L16.3744 7.65609L18.0672 6.01461ZM5.8074 6.01461L5.85869 6.06591L7.55147 7.70739L7.50017 7.75868L5.8074 9.40016V6.01461ZM7.65406 8.32294V11.7085L7.60276 11.6572L5.96129 10.067L6.01258 10.0157L7.65406 8.32294ZM5.8074 12.6318V10.6313L5.85869 10.6826L7.80795 12.5805H5.8074V12.6318ZM7.39758 17.6588C7.1411 17.6588 6.93591 17.5563 6.78202 17.4024C6.62814 17.2485 6.52554 17.0433 6.52554 16.7868C6.52554 16.3251 6.93591 15.9661 7.39758 15.9661C7.85924 15.9661 8.26961 16.3251 8.26961 16.7868C8.26961 17.2485 7.85924 17.6076 7.39758 17.6588ZM8.21832 14.4785C8.21832 14.9402 7.85924 15.2992 7.39758 15.2992C7.19239 15.2992 6.98721 15.1966 6.78202 15.0427C6.62814 14.8889 6.52554 14.6837 6.52554 14.4272C6.52554 13.9655 6.93591 13.6064 7.39758 13.6064C7.85924 13.6064 8.21832 14.0681 8.21832 14.4785ZM7.91054 7.34831L6.16647 5.65554H9.39813L7.91054 7.34831ZM8.4235 7.45091L9.91109 5.75813L11.3987 7.45091H8.4235ZM10.4754 5.65554H13.3992L11.9116 7.34831L10.4754 5.65554ZM12.4759 7.45091L13.9635 5.75813V5.80943L15.4511 7.45091H12.4759ZM14.4765 5.65554H17.6568L17.5542 5.70684L15.9127 7.34831L14.4765 5.65554ZM17.4003 16.7868C17.4003 17.2485 17.0413 17.6076 16.5796 17.6076C16.3744 17.6076 16.1692 17.505 15.964 17.3511C15.8102 17.1972 15.7076 16.992 15.7076 16.7355C15.7076 16.2738 16.1179 15.9148 16.5796 15.9148C16.99 15.9661 17.4003 16.3764 17.4003 16.7868ZM17.4003 14.4785C17.4003 14.9402 17.0413 15.2992 16.5796 15.2992C16.3744 15.2992 16.1692 15.1966 15.964 15.0427C15.8102 14.8889 15.7076 14.6837 15.7076 14.4272C15.7076 13.9655 16.1179 13.6064 16.5796 13.6064C16.99 13.6577 17.4003 14.0681 17.4003 14.4785Z" fill="#079D49"/>
<path d="M11.4499 11.555C11.3473 11.6063 11.2447 11.6576 11.1421 11.7089C11.0395 11.7602 10.9369 11.8115 10.8856 11.8628C10.7317 11.9141 10.6804 12.1193 10.7317 12.2219C10.783 12.3757 10.9369 12.427 11.0908 12.3245C11.0908 12.3245 11.2447 12.2732 11.296 12.2219C11.3986 12.1706 11.4499 12.1193 11.5012 12.1193L11.655 12.068V15.3509H10.6804V18.5826H13.1426V15.3509H12.2193V11.7602L12.2706 11.7089C12.3732 11.6576 12.4245 11.6063 12.5271 11.555C12.5784 11.5037 12.681 11.4524 12.7836 11.4524C12.9375 11.3498 12.9887 11.2472 12.9375 11.0933C12.8862 11.042 12.8349 10.9907 12.7836 10.9395C12.7323 10.9395 12.6297 10.9395 12.5271 10.9907C12.2706 11.1446 11.8602 11.3498 11.4499 11.555Z" fill="#079D49"/>
</svg>
