<svg width="25" height="24" viewBox="0 0 25 24" fill="none" xmlns="http://www.w3.org/2000/svg">
<path d="M18.2004 20.7084C18.0411 20.4885 17.802 20.3236 17.5895 20.1312C17.3237 19.8839 17.0315 19.664 16.766 19.3891C16.8192 19.3341 16.8722 19.3067 16.9254 19.2793C17.5895 18.8395 17.9879 18.2075 17.9879 17.383C18.0144 13.4807 17.9879 9.60579 17.9879 5.70344C17.9879 5.53858 17.9879 5.37372 17.9347 5.23628C17.6957 4.13712 16.819 3.42246 15.7562 3.39503H14.7999C14.9327 2.95528 14.8531 2.57054 14.5608 2.29588C14.2421 1.99357 13.8435 1.91115 13.4451 2.10341C12.9138 2.3507 12.7809 2.81788 12.9138 3.42247H11.2668H11.1339C11.1074 3.14758 11.1074 2.90027 11.0543 2.68042C11.0011 2.40553 10.7885 2.24068 10.5762 2.13085C10.1778 1.93838 9.77917 2.021 9.46043 2.32331C9.14169 2.62561 9.08852 3.01034 9.22138 3.45009H8.34472C8.18536 3.45009 8.05249 3.4775 7.89313 3.4775C6.83061 3.64236 6.03359 4.60429 6.03359 5.73107V17.4106C6.03359 17.9878 6.24614 18.5098 6.64455 18.9222C6.8306 19.1146 7.04296 19.2519 7.22899 19.4444C7.04295 19.6092 6.83059 19.7741 6.64455 19.9665C6.37882 20.2138 6.06011 20.4611 5.82107 20.736C5.66171 20.9009 5.60852 21.1208 5.68821 21.368C5.76789 21.6704 5.95394 21.8352 6.193 21.9726H6.64459C6.91032 21.7802 7.17585 21.5879 7.41489 21.3954C7.86648 21.0107 8.31807 20.626 8.76968 20.2412C8.92905 20.1038 9.08841 19.9115 9.27447 19.7741C9.32766 19.719 9.43384 19.6916 9.51352 19.6916H14.5875C14.6672 19.6916 14.7469 19.7466 14.8266 19.7741C15.2517 20.1314 15.6501 20.5161 16.0752 20.8732C16.3939 21.1755 16.7393 21.4504 17.0847 21.7527C17.1909 21.8351 17.3237 21.9176 17.4566 22H17.8817C17.9082 22 17.9349 21.9726 17.9614 21.9726C18.3333 21.7253 18.4927 21.0933 18.2004 20.7084ZM10.0183 4.41193C10.1511 4.30209 10.3105 4.24707 10.4699 4.21947C10.9747 4.19205 11.4794 4.21947 11.9842 4.21947H13.4985C13.7642 4.21947 14.083 4.43934 14.1627 4.74166C14.2423 5.07138 14.1095 5.42869 13.8439 5.56615C13.7111 5.64858 13.5517 5.67599 13.3923 5.67599H10.4967C10.2045 5.67599 9.88578 5.45612 9.80609 5.18143C9.72603 4.96155 9.75272 4.65921 10.0183 4.41193ZM7.52126 7.37991C7.52126 7.0226 7.65412 6.72031 7.99934 6.58305C8.07902 6.55564 8.1587 6.52803 8.23839 6.52803H11.9842H15.7032C16.022 6.52803 16.3939 6.83034 16.4206 7.16006C16.4206 7.46236 16.4471 7.73726 16.4471 8.03956V10.2381C16.4471 10.5954 16.3142 10.8701 15.9955 11.035C15.8893 11.09 15.7564 11.1174 15.6501 11.1174H8.34455C7.89296 11.1174 7.54754 10.8151 7.52107 10.2929C7.52125 9.33097 7.52126 8.34161 7.52126 7.37991ZM8.63701 18.1526C8.02605 18.2076 7.44161 17.5754 7.44161 16.9434C7.44161 16.3388 7.99958 15.6791 8.69019 15.7341C9.3278 15.7892 9.80594 16.2837 9.80594 16.9434C9.83243 17.5754 9.32766 18.1526 8.63701 18.1526ZM13.7641 13.3984C13.6313 13.4258 13.4719 13.4258 13.3391 13.4258H10.5496C10.2574 13.4258 9.96519 13.3708 9.88549 13.3159C9.80581 13.2609 9.859 13.1785 10.0715 13.1235C10.2044 13.0961 10.3638 13.0685 10.5231 13.0685H11.9843H13.4454C13.7112 13.0685 14.0299 13.1235 14.1096 13.2059C14.1628 13.2609 14.0299 13.3434 13.7641 13.3984ZM13.7641 12.8488C13.6313 12.8762 13.4719 12.8762 13.3391 12.8762H10.5496C10.2574 12.8762 9.96519 12.8212 9.88549 12.7664C9.80581 12.7113 9.859 12.6289 10.0715 12.5739C10.2044 12.5465 10.3638 12.5189 10.5231 12.5189H11.9843H13.4454C13.7112 12.5189 14.0299 12.5739 14.1096 12.6563C14.1628 12.7113 14.0299 12.7938 13.7641 12.8488ZM13.7641 12.299C13.6313 12.3264 13.4719 12.3264 13.3391 12.3264H10.5496C10.2574 12.3264 9.96519 12.2714 9.88549 12.2166C9.80581 12.1616 9.859 12.0791 10.0715 12.0241C10.2044 11.9967 10.3638 11.9691 10.5231 11.9691H11.9843H13.4454C13.7112 11.9691 14.0299 12.0241 14.1096 12.1066C14.1628 12.1618 14.0299 12.2442 13.7641 12.299ZM15.3315 18.1525C14.6408 18.18 14.1361 17.603 14.1361 16.9433C14.1361 16.3113 14.6409 15.6791 15.3846 15.7067C15.9159 15.7341 16.5269 16.2839 16.5004 16.9433C16.5271 17.5479 15.9691 18.2076 15.3315 18.1525Z" fill="#079D49"/>
</svg>
